<?xml version="1.0" encoding="UTF-8" standalone="no"?>
<!-- Created with Inkscape (http://www.inkscape.org/) -->

<svg
   width="1920"
   height="1920"
   viewBox="0 0 508 508"
   version="1.1"
   id="svg434"
   xmlns="http://www.w3.org/2000/svg"
   xmlns:svg="http://www.w3.org/2000/svg">
  <defs
     id="defs431" />
  <path
     style="opacity:1;fill:#ffffff;stroke-width:0;stroke-linecap:round;stroke-linejoin:bevel;stroke-miterlimit:100;paint-order:markers fill stroke"
     d="m 127.52729,123.75388 c 18.18964,-16.18663 29.31404,-38.754896 49.66096,-58.067258 20.34691,-19.312363 49.91589,-35.368523 75.55099,-32.700591 25.6351,2.667932 47.33429,24.059333 76.01167,39.65811 28.67738,15.598777 64.32956,25.403127 76.80858,50.064039 12.47901,24.66091 1.78336,64.17543 5.64591,92.6989 3.86255,28.52347 22.28293,46.05254 15.96186,64.46758 -6.32108,18.41503 -37.38361,37.71455 -51.79361,58.51249 -14.41,20.79794 -12.16702,43.09393 -28.42676,50.37953 -16.25973,7.2856 -51.02111,-0.43917 -76.5734,-0.73629 -25.55229,-0.29712 -41.8932,6.83346 -61.2058,4.15932 -19.3126,-2.67414 -41.59521,-15.1524 -65.95901,-30.45405 -24.3638,-15.30165 -50.806385,-33.42522 -59.422579,-58.08596 -8.616195,-24.66073 0.593956,-55.8564 -0.594523,-80.963 -1.18848,-25.1066 -12.775444,-44.1211 -5.941696,-58.53139 6.833748,-14.41029 32.087768,-24.21479 50.277408,-40.40143 z"
     id="path1"
     transform="matrix(1.4375878,0,0,1.4107354,-107.97218,-46.124089)" />
</svg>
