<?xml version="1.0" encoding="UTF-8" standalone="no"?>
<!-- Created with Inkscape (http://www.inkscape.org/) -->

<svg
   width="1920"
   height="1920"
   viewBox="0 0 508 508"
   version="1.1"
   id="svg434"
   xmlns="http://www.w3.org/2000/svg"
   xmlns:svg="http://www.w3.org/2000/svg">
  <defs
     id="defs431" />
  <path
     d="M 253.99998,0 A 254,254 0 0 1 249.11966,49.552521 254,254 0 0 1 234.66578,97.201302 254,254 0 0 1 211.1933,141.1149 254,254 0 0 1 179.60556,179.60556 254,254 0 0 1 141.1149,211.1933 254,254 0 0 1 97.201302,234.66578 254,254 0 0 1 49.552521,249.11966 254,254 0 0 1 0,253.99998 a 254,254 0 0 1 17.333301,0.59223 254,254 0 0 1 17.2527,1.77354 254,254 0 0 1 17.09146,2.94658 254,254 0 0 1 16.85066,4.10622 254,254 0 0 1 16.531281,5.24722 254,254 0 0 1 16.134418,6.3624 254,254 0 0 1 15.66312,7.44864 254,254 0 0 1 15.11742,8.50078 254,254 0 0 1 14.50248,9.51156 254,254 0 0 1 13.81932,10.47998 254,254 0 0 1 13.07206,11.39878 254,254 0 0 1 12.26387,12.26386 254,254 0 0 1 11.39878,13.07206 254,254 0 0 1 10.47997,13.81932 254,254 0 0 1 9.51156,14.50248 254,254 0 0 1 8.50078,15.11742 254,254 0 0 1 7.44864,15.66312 254,254 0 0 1 6.3624,16.13442 254,254 0 0 1 5.24722,16.53128 254,254 0 0 1 4.10622,16.85066 254,254 0 0 1 2.94658,17.09146 254,254 0 0 1 1.77354,17.2527 254,254 0 0 1 0.5922,17.3333 254,254 0 0 1 4.88035,-49.55252 254,254 0 0 1 14.45388,-47.64878 254,254 0 0 1 23.47248,-43.9136 254,254 0 0 1 31.58774,-38.49066 254,254 0 0 1 38.49066,-31.58774 254,254 0 0 1 43.9136,-23.47248 254,254 0 0 1 47.64878,-14.45388 254,254 0 0 1 49.55252,-4.88035 254,254 0 0 1 -49.55252,-4.88032 A 254,254 0 0 1 410.79869,234.66578 254,254 0 0 1 366.88509,211.1933 254,254 0 0 1 328.39443,179.60556 254,254 0 0 1 296.80669,141.1149 254,254 0 0 1 273.33421,97.201302 254,254 0 0 1 258.88033,49.552521 254,254 0 0 1 253.99998,0 Z"
     style="display:inline;opacity:1;stroke-width:0;stroke-miterlimit:100;paint-order:markers fill stroke"
     id="path4" />
</svg>
